<svg width="58" height="80" viewBox="0 0 58 80" fill="none" xmlns="http://www.w3.org/2000/svg">
<path d="M29.0931 79.422L57.8463 48.6452L52.0333 42.5527L29.0316 67.1747L5.78104 42.8131L0.0307512 48.9707L29.0931 79.422Z" fill="#0ACF83"/>
<path d="M23.1267 30.6147L28.9073 36.7398L34.6897 30.6147L28.9073 24.4925L23.1267 30.6147Z" fill="#0ACF83"/>
<path d="M19.7532 46.4329L13.9719 40.3109L19.7532 34.1887L25.5356 40.3109L19.7532 46.4329Z" fill="#0ACF83"/>
<path d="M38.0617 46.4329L32.2807 40.3109L38.0617 34.1887L43.8436 40.3109L38.0617 46.4329Z" fill="#0ACF83"/>
<path d="M28.9075 56.1272L23.1267 50.0038L28.9075 43.8818L34.6897 50.0038L28.9075 56.1272Z" fill="#0ACF83"/>
<path d="M28.9073 0L0 30.6145L5.78232 36.7396L28.9073 12.2475L52.0353 36.7396L57.8164 30.6145L28.9073 0Z" fill="#0ACF83"/>
</svg>
